HIERARCHY
ROOT Hips
{
	OFFSET 0.000000 0.000000 0.000000
	CHANNELS 6 Xposition Yposition Zposition Zrotation Yrotation Xrotation 
	JOINT LHipJoint
	{
		OFFSET 0.000000 0.000000 0.000000
		CHANNELS 3 Zrotation Yrotation Xrotation
		JOINT LeftUpLeg
		{
			OFFSET 1.363060 -1.794630 0.839290
			CHANNELS 3 Zrotation Yrotation Xrotation
			JOINT LeftLeg
			{
				OFFSET 2.448110 -6.726130 0.000000
				CHANNELS 3 Zrotation Yrotation Xrotation
				JOINT LeftFoot
				{
					OFFSET 2.562200 -7.039590 0.000000
					CHANNELS 3 Zrotation Yrotation Xrotation
					JOINT LeftToeBase
					{
						OFFSET 0.157640 -0.433110 2.322550
						CHANNELS 3 Zrotation Yrotation Xrotation
						End Site
						{
							OFFSET 0.000000 0.000000 0.000000
						}
					}
				}
			}
		}
	}
	JOINT RHipJoint
	{
		OFFSET 0.000000 0.000000 0.000000
		CHANNELS 3 Zrotation Yrotation Xrotation
		JOINT RightUpLeg
		{
			OFFSET -1.305520 -1.794630 0.839290
			CHANNELS 3 Zrotation Yrotation Xrotation
			JOINT RightLeg
			{
				OFFSET -2.542530 -6.985550 0.000000
				CHANNELS 3 Zrotation Yrotation Xrotation
				JOINT RightFoot
				{
					OFFSET -2.568260 -7.056230 0.000000
					CHANNELS 3 Zrotation Yrotation Xrotation
					JOINT RightToeBase
					{
						OFFSET -0.164730 -0.452590 2.363150
						CHANNELS 3 Zrotation Yrotation Xrotation
						End Site
						{
							OFFSET 0.000000 0.000000 0.000000
						}
					}
				}
			}
		}
	}
	JOINT LowerBack
	{
		OFFSET 0.000000 0.000000 0.000000
		CHANNELS 3 Zrotation Yrotation Xrotation
		JOINT Spine
		{
			OFFSET 0.028270 2.035590 -0.193380
			CHANNELS 3 Zrotation Yrotation Xrotation
			JOINT Spine1
			{
				OFFSET 0.056720 2.048850 -0.042750
				CHANNELS 3 Zrotation Yrotation Xrotation
				JOINT Neck
				{
					OFFSET 0.000000 0.000000 0.000000
					CHANNELS 3 Zrotation Yrotation Xrotation
					JOINT Neck1
					{
						OFFSET -0.054170 1.746240 0.172020
						CHANNELS 3 Zrotation Yrotation Xrotation
						JOINT Head
						{
							OFFSET 0.104070 1.761360 -0.123970
							CHANNELS 3 Zrotation Yrotation Xrotation
							End Site
							{
								OFFSET 0.000000 0.000000 0.000000
							}
						}
					}
				}
				JOINT LeftShoulder
				{
					OFFSET 0.000000 0.000000 0.000000
					CHANNELS 3 Zrotation Yrotation Xrotation
					JOINT LeftArm
					{
						OFFSET 3.362410 1.200890 -0.311210
						CHANNELS 3 Zrotation Yrotation Xrotation
						JOINT LeftForeArm
						{
							OFFSET 4.983000 -0.000000 -0.000000
							CHANNELS 3 Zrotation Yrotation Xrotation
							JOINT LeftHand
							{
								OFFSET 3.483560 -0.000000 -0.000000
								CHANNELS 3 Zrotation Yrotation Xrotation
								JOINT LeftFingerBase
								{
									OFFSET 0.000000 0.000000 0.000000
									CHANNELS 3 Zrotation Yrotation Xrotation
									JOINT LeftHandIndex1
									{
										OFFSET 0.715260 -0.000000 -0.000000
										CHANNELS 3 Zrotation Yrotation Xrotation
										End Site
										{
											OFFSET 0.000000 0.000000 0.000000
										}
									}
								}
								JOINT LThumb
								{
									OFFSET 0.000000 0.000000 0.000000
									CHANNELS 3 Zrotation Yrotation Xrotation
									End Site
									{
										OFFSET 0.000000 0.000000 0.000000
									}
								}
							}
						}
					}
				}
				JOINT RightShoulder
				{
					OFFSET 0.000000 0.000000 0.000000
					CHANNELS 3 Zrotation Yrotation Xrotation
					JOINT RightArm
					{
						OFFSET -3.136600 1.374050 -0.404650
						CHANNELS 3 Zrotation Yrotation Xrotation
						JOINT RightForeArm
						{
							OFFSET -5.241900 -0.000000 -0.000000
							CHANNELS 3 Zrotation Yrotation Xrotation
							JOINT RightHand
							{
								OFFSET -3.444170 -0.000000 -0.000000
								CHANNELS 3 Zrotation Yrotation Xrotation
								JOINT RightFingerBase
								{
									OFFSET 0.000000 0.000000 0.000000
									CHANNELS 3 Zrotation Yrotation Xrotation
									JOINT RightHandIndex1
									{
										OFFSET -0.622530 -0.000000 -0.000000
										CHANNELS 3 Zrotation Yrotation Xrotation
										End Site
										{
											OFFSET 0.000000 0.000000 0.000000
										}
									}
								}
								JOINT RThumb
								{
									OFFSET 0.000000 0.000000 0.000000
									CHANNELS 3 Zrotation Yrotation Xrotation
									End Site
									{
										OFFSET 0.000000 0.000000 0.000000
									}
								}
							}
						}
					}
				}
			}
		}
	}
}
MOTION
Frames: 11
Frame Time: 0.008333
-0.581292 17.434325 26.926865 -0.657950 -3.013050 2.259274 -0.337942 1.477624 2.182388 -12.594032 -4.088092 -8.324077 15.504615 18.811755 74.997557 3.128952 2.856181 40.277539 0.018527 0.858189 2.358783 -0.013120 -1.254577 0.785847 26.026379 11.092408 -19.114594 -4.360951 -13.537311 41.466221 2.906777 -11.388769 -3.949012 -0.027472 -1.068473 2.937190 2.037416 0.803437 9.907462 1.175886 1.281882 -2.392170 1.943551 0.729402 -2.834141 -6.430742 -1.889430 -17.165486 3.944051 -1.294996 6.876038 2.902327 -0.773166 8.499741 -1.653335 2.441510 -2.479538 -84.857202 14.249847 41.849004 121.036803 -60.575149 -89.659622 -0.600867 -1.457727 -20.088859 18.672364 8.133584 3.319667 -7.125000 0.000000 0.000000 -6.297612 39.773098 0.815380 -0.411392 -1.883386 -1.629445 84.145318 -13.969371 38.775773 -137.028653 50.237777 -102.147448 1.038856 -0.885686 -19.549534 -7.482328 18.618176 -2.776926 7.125000 0.000000 0.000000 12.989900 -10.406437 10.717162
-0.589427 17.420073 27.068734 -0.778918 -2.758840 2.329158 -0.288752 1.432138 2.098328 -12.243838 -4.396931 -9.253690 15.775815 18.922710 75.889842 3.051213 2.579525 39.744623 0.022003 0.951503 2.615357 -0.029844 -1.261384 0.831089 26.297573 10.838307 -18.805764 -4.399140 -13.546059 41.607376 2.953854 -11.547730 -4.523339 -0.023625 -0.963972 2.649824 2.146363 0.785911 9.934756 1.192803 1.270997 -2.398909 1.954524 0.728856 -2.837904 -6.449729 -1.867657 -17.321655 4.014118 -1.254740 6.950136 2.947518 -0.749238 8.583605 -1.654886 2.445820 -2.493774 -84.950125 14.469090 41.626348 120.718235 -60.681121 -89.445414 -0.597457 -1.470738 -20.103292 18.713634 8.228934 3.365422 -7.125000 0.000000 0.000000 -6.276586 39.890520 0.793938 -0.402760 -1.869497 -1.639906 84.029147 -13.393478 38.777536 -136.952243 50.277084 -102.105011 1.044000 -0.869849 -19.539926 -7.613850 18.472381 -2.806561 7.125000 0.000000 0.000000 12.902561 -10.550801 10.599504
-0.597690 17.412628 27.219434 -0.615147 -2.527907 2.359716 -0.254066 1.381215 2.022574 -12.273484 -4.647378 -10.035888 15.975456 19.005081 76.605210 2.973607 2.234425 39.156731 0.016439 0.805504 2.213862 -0.025701 -1.270862 0.878773 26.229316 10.438034 -18.468167 -4.412848 -13.532945 41.646092 3.017505 -11.751135 -4.950983 -0.013974 -0.635554 1.746907 1.944091 0.791437 9.884282 1.182585 1.245768 -2.402106 2.017972 0.723064 -2.816554 -6.470458 -1.832317 -17.350977 4.090843 -1.202995 6.986814 2.995029 -0.717797 8.608276 -1.659086 2.460083 -2.506967 -84.992000 14.817810 41.409066 120.598519 -60.727703 -89.361475 -0.584639 -1.476637 -20.183428 18.554600 8.325872 3.371103 -7.125000 0.000000 0.000000 -6.437877 39.986866 0.798763 -0.406148 -1.863958 -1.641067 83.925853 -12.897684 38.820850 -136.913522 50.301638 -102.062075 1.078282 -0.932718 -19.471676 -7.712103 19.484358 -2.995635 7.125000 0.000000 0.000000 12.830768 -9.482235 10.818074
-0.605954 17.405183 27.370133 -0.451377 -2.296973 2.390274 -0.219380 1.330292 1.946820 -12.303130 -4.897825 -10.818087 16.175096 19.087453 77.320579 2.896001 1.889325 38.568839 0.010874 0.659506 1.812366 -0.021558 -1.280339 0.926457 26.161059 10.037760 -18.130570 -4.426556 -13.519830 41.684808 3.081156 -11.954541 -5.378627 -0.004324 -0.307136 0.843990 1.741819 0.796962 9.833809 1.172367 1.220540 -2.405302 2.081421 0.717272 -2.795205 -6.491187 -1.796978 -17.380298 4.167567 -1.151250 7.023493 3.042541 -0.686356 8.632946 -1.663286 2.474346 -2.520161 -85.033876 15.166530 41.191785 120.478802 -60.774286 -89.277536 -0.571821 -1.482537 -20.263564 18.395566 8.422810 3.376784 -7.125000 0.000000 0.000000 -6.599168 40.083213 0.803588 -0.409537 -1.858419 -1.642229 83.822559 -12.401889 38.864164 -136.874802 50.326192 -102.019140 1.112563 -0.995588 -19.403427 -7.810357 20.496335 -3.184709 7.125000 0.000000 0.000000 12.758975 -8.413669 11.036643
-0.612554 17.399321 27.520067 -0.261044 -2.191215 2.452007 -0.189030 1.280129 1.875263 -12.395025 -5.016668 -11.635750 16.341563 19.160894 77.948781 2.814965 1.516471 37.905780 0.007193 0.530152 1.456812 -0.013355 -1.291653 0.975304 26.051196 9.655805 -17.771269 -4.427549 -13.493241 41.670367 3.146488 -12.158151 -5.720393 -0.009586 0.162697 -0.447672 1.504306 0.860889 9.759703 1.155689 1.267548 -2.414640 2.145776 0.749462 -2.808339 -6.510881 -1.804000 -17.320166 4.209170 -1.158176 7.005628 3.063718 -0.685367 8.611524 -1.661769 2.486449 -2.531810 -85.046304 15.560993 41.078506 120.563510 -60.757505 -89.325723 -0.560193 -1.501159 -20.449442 18.334031 8.759287 3.487252 -7.125000 0.000000 0.000000 -6.710224 40.447902 0.755668 -0.417272 -1.850773 -1.640361 83.733932 -12.018674 38.852055 -136.918021 50.299596 -102.042840 1.127627 -1.021873 -19.282647 -7.897409 20.898563 -3.279892 7.125000 0.000000 0.000000 12.699132 -7.983839 11.095497
-0.618240 17.394331 27.669580 -0.056100 -2.154303 2.530887 -0.161064 1.230386 1.806015 -12.521156 -5.063130 -12.472919 16.489785 19.229423 78.529043 2.732044 1.128354 37.201379 0.004547 0.409952 1.126526 -0.002920 -1.303976 1.024792 25.918449 9.283925 -17.400029 -4.421548 -13.459240 41.626689 3.212745 -12.361875 -6.014926 -0.023050 0.710308 -1.953144 1.247410 0.956936 9.672600 1.135458 1.354286 -2.427355 2.210628 0.802542 -2.840440 -6.530005 -1.834320 -17.210835 4.231457 -1.197372 6.957765 3.070411 -0.701127 8.564752 -1.657109 2.497363 -2.542611 -85.042537 15.980615 41.022428 120.760651 -60.705874 -89.446581 -0.549219 -1.526779 -20.693476 18.326121 9.227511 3.655352 -7.125000 0.000000 0.000000 -6.793652 40.960180 0.678739 -0.427399 -1.841966 -1.636826 83.653372 -11.697378 38.809461 -137.006307 50.244867 -102.103190 1.132122 -1.028037 -19.132976 -7.978302 20.965429 -3.323435 7.125000 0.000000 0.000000 12.645861 -7.905314 11.066508
-0.624055 17.389661 27.818650 0.127916 -2.123363 2.613303 -0.132699 1.181179 1.736430 -12.619667 -5.102619 -13.319144 16.635563 19.298168 79.100195 2.649180 0.740379 36.490155 0.002077 0.283306 0.778526 0.006913 -1.316313 1.074003 25.810486 8.922005 -17.022066 -4.413209 -13.422713 41.575280 3.276613 -12.559619 -6.314307 -0.037544 1.242336 -3.416023 1.010225 1.055725 9.582737 1.117027 1.447210 -2.438838 2.272885 0.858483 -2.866445 -6.546671 -1.866875 -17.106788 4.252481 -1.239990 6.908081 3.075648 -0.718374 8.518047 -1.651487 2.508458 -2.552839 -85.038854 16.389137 40.974069 120.957034 -60.654427 -89.566684 -0.539385 -1.552597 -20.929354 18.335364 9.695968 3.827705 -7.125000 0.000000 0.000000 -6.861489 41.474409 0.600190 -0.436902 -1.833758 -1.633257 83.577415 -11.372674 38.758671 -137.101309 50.186271 -102.168286 1.135001 -1.033962 -18.982384 -8.041086 21.016921 -3.357221 7.125000 0.000000 0.000000 12.604622 -7.844313 11.044087
-0.631460 17.388924 27.962273 0.054832 -2.165791 2.739163 -0.099422 1.138570 1.662697 -12.378856 -5.056456 -14.276634 16.751319 19.369559 79.559425 2.567028 0.354157 35.695112 0.001765 0.077461 0.212899 0.009339 -1.328818 1.119821 26.007010 8.682458 -16.561510 -4.376145 -13.355136 41.428880 3.311148 -12.683913 -6.673249 -0.064705 1.582934 -4.355635 1.015194 1.188203 9.458961 1.120704 1.616118 -2.435174 2.303248 0.949581 -2.817570 -6.533148 -1.926881 -17.067680 4.257995 -1.324656 6.836027 3.063002 -0.753901 8.472169 -1.634042 2.521767 -2.556026 -85.036203 16.661288 41.020548 121.144090 -60.605230 -89.677528 -0.543553 -1.580858 -21.065009 18.555352 10.167288 4.052306 -7.125000 0.000000 0.000000 -6.737787 42.012603 0.501742 -0.438730 -1.832888 -1.629265 83.558010 -11.006111 38.607177 -137.278825 50.080177 -102.291678 1.118042 -1.036950 -18.820466 -7.881404 20.879523 -3.271148 7.125000 0.000000 0.000000 12.711203 -7.998600 11.102378
-0.638864 17.388188 28.105896 -0.018252 -2.208218 2.865024 -0.066146 1.095961 1.588963 -12.138045 -5.010292 -15.234123 16.867075 19.440950 80.018656 2.484876 -0.032065 34.900069 0.001454 -0.128384 -0.352728 0.011765 -1.341323 1.165640 26.203534 8.442912 -16.100954 -4.339080 -13.287560 41.282481 3.345683 -12.808206 -7.032190 -0.091866 1.923532 -5.295246 1.020163 1.320680 9.335185 1.124381 1.785026 -2.431510 2.333611 1.040679 -2.768694 -6.519625 -1.986888 -17.028572 4.263510 -1.409323 6.763973 3.050355 -0.789428 8.426292 -1.616598 2.535077 -2.559213 -85.033553 16.933439 41.067026 121.331146 -60.556032 -89.788372 -0.547720 -1.609119 -21.200665 18.775341 10.638608 4.276907 -7.125000 0.000000 0.000000 -6.614086 42.550797 0.403295 -0.440559 -1.832019 -1.625273 83.538604 -10.639547 38.455682 -137.456341 49.974082 -102.415070 1.101082 -1.039938 -18.658548 -7.721722 20.742124 -3.185074 7.125000 0.000000 0.000000 12.817783 -8.152886 11.160668
-0.645586 17.391587 28.252165 -0.103473 -2.208147 2.954023 -0.035182 1.057202 1.518427 -11.897398 -5.007731 -16.108080 16.959704 19.506203 80.389726 2.398751 -0.349877 34.076189 0.013945 -0.509781 -1.401805 0.017348 -1.356664 1.213461 26.399485 8.204000 -15.578442 -4.286714 -13.204529 41.085383 3.355708 -12.868229 -7.431495 -0.108387 2.121518 -5.841670 1.059970 1.449724 9.231155 1.126256 1.953851 -2.422050 2.337635 1.131048 -2.704818 -6.503737 -2.050615 -17.007146 4.284513 -1.499725 6.701134 3.046873 -0.825800 8.390228 -1.601229 2.550356 -2.562089 -84.990284 17.187660 41.177880 121.502938 -60.512277 -89.890446 -0.554747 -1.620981 -21.273673 18.931810 10.849479 4.390851 -7.125000 0.000000 0.000000 -6.501967 42.794778 0.355288 -0.446254 -1.831719 -1.619312 83.535230 -10.305892 38.283177 -137.697795 49.826098 -102.579204 1.087681 -1.044415 -18.547731 -7.595114 20.631714 -3.117073 7.125000 0.000000 0.000000 12.903164 -8.274273 11.207533
-0.651639 17.399032 28.401023 -0.200574 -2.166482 3.006945 -0.006483 1.022213 1.451021 -11.656912 -5.047846 -16.900280 17.029697 19.565450 80.674511 2.308740 -0.600733 33.224086 0.038965 -1.062995 -2.924048 0.026021 -1.374780 1.263243 26.594875 7.965708 -14.995292 -4.219374 -13.106373 40.838666 3.341743 -12.865350 -7.870303 -0.114497 2.179925 -6.003272 1.133875 1.575409 9.146453 1.126366 2.122596 -2.406917 2.315880 1.220703 -2.626259 -6.485533 -2.117983 -17.003025 4.320677 -1.595740 6.647315 3.052359 -0.863000 8.363767 -1.587892 2.567564 -2.564660 -84.907260 17.424332 41.351739 121.659789 -60.473849 -89.983935 -0.564572 -1.616792 -21.285367 19.026113 10.805443 4.396494 -7.125000 0.000000 0.000000 -6.401185 42.750808 0.356650 -0.455735 -1.831976 -1.611425 83.547546 -10.004444 38.090110 -138.001827 49.637115 -102.783212 1.077764 -1.050350 -18.486927 -7.500877 20.547718 -3.066759 7.125000 0.000000 0.000000 12.967797 -8.363459 11.243215
